<?xml version="1.0" encoding="UTF-8" standalone="no"?>
<!DOCTYPE svg PUBLIC "-//W3C//DTD SVG 1.1//EN"
 "http://www.w3.org/Graphics/SVG/1.1/DTD/svg11.dtd">
<!-- Generated by graphviz version 2.47.0 (20210316.0004)
 -->
<!-- Title: dependencies Pages: 1 -->
<svg width="660pt" height="211pt"
 viewBox="0.00 0.00 660.00 211.00" xmlns="http://www.w3.org/2000/svg" xmlns:xlink="http://www.w3.org/1999/xlink">
<g id="graph0" class="graph" transform="scale(1 1) rotate(0) translate(4 207)">
<title>dependencies</title>
<polygon fill="white" stroke="transparent" points="-4,4 -4,-207 656,-207 656,4 -4,4"/>
<text text-anchor="start" x="305.01" y="-42.4" font-family="Times-12" font-weight="bold" font-size="14.00">Legend</text>
<polygon fill="#ffffb3" stroke="transparent" points="92,-10 92,-30 112,-30 112,-10 92,-10"/>
<text text-anchor="start" x="115.63" y="-15.4" font-family="Times-12" font-size="14.00"> &#160;Declarations</text>
<polygon fill="#8dd3c7" stroke="transparent" points="205,-10 205,-30 225,-30 225,-10 205,-10"/>
<text text-anchor="start" x="228.73" y="-15.4" font-family="Times-12" font-size="14.00"> &#160;Module</text>
<polygon fill="#80b1d3" stroke="transparent" points="291,-10 291,-30 311,-30 311,-10 291,-10"/>
<text text-anchor="start" x="314.78" y="-15.4" font-family="Times-12" font-size="14.00"> &#160;Bootstrap</text>
<polygon fill="#fdb462" stroke="transparent" points="388,-10 388,-30 408,-30 408,-10 388,-10"/>
<text text-anchor="start" x="411.67" y="-15.4" font-family="Times-12" font-size="14.00"> &#160;Providers</text>
<polygon fill="#fb8072" stroke="transparent" points="484,-10 484,-30 504,-30 504,-10 484,-10"/>
<text text-anchor="start" x="507.73" y="-15.4" font-family="Times-12" font-size="14.00"> &#160;Exports</text>
<g id="clust1" class="cluster">
<title>cluster_CoursesModule</title>
<polygon fill="none" stroke="black" stroke-dasharray="1,5" points="8,-70 8,-195 644,-195 644,-70 8,-70"/>
</g>
<g id="clust6" class="cluster">
<title>cluster_CoursesModule_providers</title>
<polygon fill="none" stroke="black" points="478,-78 478,-130 636,-130 636,-78 478,-78"/>
</g>
<g id="clust3" class="cluster">
<title>cluster_CoursesModule_imports</title>
<polygon fill="none" stroke="black" points="16,-78 16,-130 470,-130 470,-78 16,-78"/>
</g>
<!-- AdminModule -->
<g id="node1" class="node">
<title>AdminModule</title>
<polygon fill="#8dd3c7" stroke="black" points="462.44,-122 459.44,-126 438.44,-126 435.44,-122 363.56,-122 363.56,-86 462.44,-86 462.44,-122"/>
<text text-anchor="middle" x="413" y="-99.8" font-family="Times,serif" font-size="14.00">AdminModule</text>
</g>
<!-- CoursesModule -->
<g id="node5" class="node">
<title>CoursesModule</title>
<polygon fill="#8dd3c7" stroke="black" points="351.15,-187 348.15,-191 327.15,-191 324.15,-187 246.85,-187 246.85,-151 351.15,-151 351.15,-187"/>
<text text-anchor="middle" x="299" y="-164.8" font-family="Times,serif" font-size="14.00">CoursesModule</text>
</g>
<!-- AdminModule&#45;&gt;CoursesModule -->
<g id="edge1" class="edge">
<title>AdminModule&#45;&gt;CoursesModule</title>
<path fill="none" stroke="black" d="M413,-122.02C413,-139.37 413,-163 413,-163 413,-163 361.33,-163 361.33,-163"/>
<polygon fill="black" stroke="black" points="361.33,-159.5 351.33,-163 361.33,-166.5 361.33,-159.5"/>
</g>
<!-- ClientModule -->
<g id="node2" class="node">
<title>ClientModule</title>
<polygon fill="#8dd3c7" stroke="black" points="345.77,-122 342.77,-126 321.77,-126 318.77,-122 252.23,-122 252.23,-86 345.77,-86 345.77,-122"/>
<text text-anchor="middle" x="299" y="-99.8" font-family="Times,serif" font-size="14.00">ClientModule</text>
</g>
<!-- ClientModule&#45;&gt;CoursesModule -->
<g id="edge2" class="edge">
<title>ClientModule&#45;&gt;CoursesModule</title>
<path fill="none" stroke="black" d="M299,-122.11C299,-122.11 299,-140.99 299,-140.99"/>
<polygon fill="black" stroke="black" points="295.5,-140.99 299,-150.99 302.5,-140.99 295.5,-140.99"/>
</g>
<!-- ImageModule -->
<g id="node3" class="node">
<title>ImageModule</title>
<polygon fill="#8dd3c7" stroke="black" points="234.03,-122 231.03,-126 210.03,-126 207.03,-122 139.97,-122 139.97,-86 234.03,-86 234.03,-122"/>
<text text-anchor="middle" x="187" y="-99.8" font-family="Times,serif" font-size="14.00">ImageModule</text>
</g>
<!-- ImageModule&#45;&gt;CoursesModule -->
<g id="edge3" class="edge">
<title>ImageModule&#45;&gt;CoursesModule</title>
<path fill="none" stroke="black" d="M187,-122.02C187,-139.37 187,-163 187,-163 187,-163 236.61,-163 236.61,-163"/>
<polygon fill="black" stroke="black" points="236.61,-166.5 246.61,-163 236.61,-159.5 236.61,-166.5"/>
</g>
<!-- SharedModule -->
<g id="node4" class="node">
<title>SharedModule</title>
<polygon fill="#8dd3c7" stroke="black" points="122.42,-122 119.42,-126 98.42,-126 95.42,-122 23.58,-122 23.58,-86 122.42,-86 122.42,-122"/>
<text text-anchor="middle" x="73" y="-99.8" font-family="Times,serif" font-size="14.00">SharedModule</text>
</g>
<!-- SharedModule&#45;&gt;CoursesModule -->
<g id="edge4" class="edge">
<title>SharedModule&#45;&gt;CoursesModule</title>
<path fill="none" stroke="black" d="M73,-122.28C73,-143.32 73,-175 73,-175 73,-175 236.58,-175 236.58,-175"/>
<polygon fill="black" stroke="black" points="236.58,-178.5 246.58,-175 236.58,-171.5 236.58,-178.5"/>
</g>
<!-- CoursesService -->
<g id="node6" class="node">
<title>CoursesService</title>
<ellipse fill="#fdb462" stroke="black" cx="557" cy="-104" rx="71.2" ry="18"/>
<text text-anchor="middle" x="557" y="-99.8" font-family="Times,serif" font-size="14.00">CoursesService</text>
</g>
<!-- CoursesService&#45;&gt;CoursesModule -->
<g id="edge5" class="edge">
<title>CoursesService&#45;&gt;CoursesModule</title>
<path fill="none" stroke="black" d="M557,-122.28C557,-143.32 557,-175 557,-175 557,-175 361.21,-175 361.21,-175"/>
<polygon fill="black" stroke="black" points="361.21,-171.5 351.21,-175 361.21,-178.5 361.21,-171.5"/>
</g>
</g>
</svg>
