<?xml version="1.0" encoding="UTF-8" standalone="no"?>
<!DOCTYPE svg PUBLIC "-//W3C//DTD SVG 1.1//EN"
 "http://www.w3.org/Graphics/SVG/1.1/DTD/svg11.dtd">
<!-- Generated by graphviz version 2.47.0 (20210316.0004)
 -->
<!-- Title: dependencies Pages: 1 -->
<svg width="996pt" height="211pt"
 viewBox="0.00 0.00 996.00 211.00" xmlns="http://www.w3.org/2000/svg" xmlns:xlink="http://www.w3.org/1999/xlink">
<g id="graph0" class="graph" transform="scale(1 1) rotate(0) translate(4 207)">
<title>dependencies</title>
<polygon fill="white" stroke="transparent" points="-4,4 -4,-207 992,-207 992,4 -4,4"/>
<text text-anchor="start" x="473.01" y="-42.4" font-family="Times-12" font-weight="bold" font-size="14.00">Legend</text>
<polygon fill="#ffffb3" stroke="transparent" points="260,-10 260,-30 280,-30 280,-10 260,-10"/>
<text text-anchor="start" x="283.63" y="-15.4" font-family="Times-12" font-size="14.00"> &#160;Declarations</text>
<polygon fill="#8dd3c7" stroke="transparent" points="373,-10 373,-30 393,-30 393,-10 373,-10"/>
<text text-anchor="start" x="396.73" y="-15.4" font-family="Times-12" font-size="14.00"> &#160;Module</text>
<polygon fill="#80b1d3" stroke="transparent" points="459,-10 459,-30 479,-30 479,-10 459,-10"/>
<text text-anchor="start" x="482.78" y="-15.4" font-family="Times-12" font-size="14.00"> &#160;Bootstrap</text>
<polygon fill="#fdb462" stroke="transparent" points="556,-10 556,-30 576,-30 576,-10 556,-10"/>
<text text-anchor="start" x="579.67" y="-15.4" font-family="Times-12" font-size="14.00"> &#160;Providers</text>
<polygon fill="#fb8072" stroke="transparent" points="652,-10 652,-30 672,-30 672,-10 652,-10"/>
<text text-anchor="start" x="675.73" y="-15.4" font-family="Times-12" font-size="14.00"> &#160;Exports</text>
<g id="clust1" class="cluster">
<title>cluster_ClientModule</title>
<polygon fill="none" stroke="black" stroke-dasharray="1,5" points="8,-70 8,-195 980,-195 980,-70 8,-70"/>
</g>
<g id="clust3" class="cluster">
<title>cluster_ClientModule_imports</title>
<polygon fill="none" stroke="black" points="753,-78 753,-130 972,-130 972,-78 753,-78"/>
</g>
<g id="clust6" class="cluster">
<title>cluster_ClientModule_providers</title>
<polygon fill="none" stroke="black" points="16,-78 16,-130 745,-130 745,-78 16,-78"/>
</g>
<!-- BaseModule -->
<g id="node1" class="node">
<title>BaseModule</title>
<polygon fill="#8dd3c7" stroke="black" points="964.26,-122 961.26,-126 940.26,-126 937.26,-122 877.74,-122 877.74,-86 964.26,-86 964.26,-122"/>
<text text-anchor="middle" x="921" y="-99.8" font-family="Times,serif" font-size="14.00">BaseModule</text>
</g>
<!-- ClientModule -->
<g id="node3" class="node">
<title>ClientModule</title>
<polygon fill="#8dd3c7" stroke="black" points="596.77,-187 593.77,-191 572.77,-191 569.77,-187 503.23,-187 503.23,-151 596.77,-151 596.77,-187"/>
<text text-anchor="middle" x="550" y="-164.8" font-family="Times,serif" font-size="14.00">ClientModule</text>
</g>
<!-- BaseModule&#45;&gt;ClientModule -->
<g id="edge1" class="edge">
<title>BaseModule&#45;&gt;ClientModule</title>
<path fill="none" stroke="black" d="M921,-122.29C921,-144.21 921,-178 921,-178 921,-178 606.99,-178 606.99,-178"/>
<polygon fill="black" stroke="black" points="606.99,-174.5 596.99,-178 606.99,-181.5 606.99,-174.5"/>
</g>
<!-- PrismaModule -->
<g id="node2" class="node">
<title>PrismaModule</title>
<polygon fill="#8dd3c7" stroke="black" points="859.43,-122 856.43,-126 835.43,-126 832.43,-122 760.57,-122 760.57,-86 859.43,-86 859.43,-122"/>
<text text-anchor="middle" x="810" y="-99.8" font-family="Times,serif" font-size="14.00">PrismaModule</text>
</g>
<!-- PrismaModule&#45;&gt;ClientModule -->
<g id="edge2" class="edge">
<title>PrismaModule&#45;&gt;ClientModule</title>
<path fill="none" stroke="black" d="M810,-122.11C810,-141.34 810,-169 810,-169 810,-169 606.78,-169 606.78,-169"/>
<polygon fill="black" stroke="black" points="606.78,-165.5 596.78,-169 606.78,-172.5 606.78,-165.5"/>
</g>
<!-- AtStrategy -->
<g id="node4" class="node">
<title>AtStrategy</title>
<ellipse fill="#fdb462" stroke="black" cx="684" cy="-104" rx="52.74" ry="18"/>
<text text-anchor="middle" x="684" y="-99.8" font-family="Times,serif" font-size="14.00">AtStrategy</text>
</g>
<!-- AtStrategy&#45;&gt;ClientModule -->
<g id="edge3" class="edge">
<title>AtStrategy&#45;&gt;ClientModule</title>
<path fill="none" stroke="black" d="M684,-122.03C684,-138.4 684,-160 684,-160 684,-160 606.87,-160 606.87,-160"/>
<polygon fill="black" stroke="black" points="606.87,-156.5 596.87,-160 606.87,-163.5 606.87,-156.5"/>
</g>
<!-- ClientService -->
<g id="node5" class="node">
<title>ClientService</title>
<ellipse fill="#fdb462" stroke="black" cx="550" cy="-104" rx="63.7" ry="18"/>
<text text-anchor="middle" x="550" y="-99.8" font-family="Times,serif" font-size="14.00">ClientService</text>
</g>
<!-- ClientService&#45;&gt;ClientModule -->
<g id="edge4" class="edge">
<title>ClientService&#45;&gt;ClientModule</title>
<path fill="none" stroke="black" d="M550,-122.11C550,-122.11 550,-140.99 550,-140.99"/>
<polygon fill="black" stroke="black" points="546.5,-140.99 550,-150.99 553.5,-140.99 546.5,-140.99"/>
</g>
<!-- FacebookStrategy -->
<g id="node6" class="node">
<title>FacebookStrategy</title>
<ellipse fill="#fdb462" stroke="black" cx="388" cy="-104" rx="80.52" ry="18"/>
<text text-anchor="middle" x="388" y="-99.8" font-family="Times,serif" font-size="14.00">FacebookStrategy</text>
</g>
<!-- FacebookStrategy&#45;&gt;ClientModule -->
<g id="edge5" class="edge">
<title>FacebookStrategy&#45;&gt;ClientModule</title>
<path fill="none" stroke="black" d="M388,-122.03C388,-138.4 388,-160 388,-160 388,-160 493.14,-160 493.14,-160"/>
<polygon fill="black" stroke="black" points="493.14,-163.5 503.14,-160 493.14,-156.5 493.14,-163.5"/>
</g>
<!-- GoogleStrategy -->
<g id="node7" class="node">
<title>GoogleStrategy</title>
<ellipse fill="#fdb462" stroke="black" cx="218" cy="-104" rx="71.79" ry="18"/>
<text text-anchor="middle" x="218" y="-99.8" font-family="Times,serif" font-size="14.00">GoogleStrategy</text>
</g>
<!-- GoogleStrategy&#45;&gt;ClientModule -->
<g id="edge6" class="edge">
<title>GoogleStrategy&#45;&gt;ClientModule</title>
<path fill="none" stroke="black" d="M218,-122.11C218,-141.34 218,-169 218,-169 218,-169 493.14,-169 493.14,-169"/>
<polygon fill="black" stroke="black" points="493.14,-172.5 503.14,-169 493.14,-165.5 493.14,-172.5"/>
</g>
<!-- RtStrategy -->
<g id="node8" class="node">
<title>RtStrategy</title>
<ellipse fill="#fdb462" stroke="black" cx="76" cy="-104" rx="52.18" ry="18"/>
<text text-anchor="middle" x="76" y="-99.8" font-family="Times,serif" font-size="14.00">RtStrategy</text>
</g>
<!-- RtStrategy&#45;&gt;ClientModule -->
<g id="edge7" class="edge">
<title>RtStrategy&#45;&gt;ClientModule</title>
<path fill="none" stroke="black" d="M76,-122.29C76,-144.21 76,-178 76,-178 76,-178 492.82,-178 492.82,-178"/>
<polygon fill="black" stroke="black" points="492.82,-181.5 502.82,-178 492.82,-174.5 492.82,-181.5"/>
</g>
</g>
</svg>
