<?xml version="1.0" encoding="UTF-8" standalone="no"?>
<!DOCTYPE svg PUBLIC "-//W3C//DTD SVG 1.1//EN"
 "http://www.w3.org/Graphics/SVG/1.1/DTD/svg11.dtd">
<!-- Generated by graphviz version 2.47.0 (20210316.0004)
 -->
<!-- Title: dependencies Pages: 1 -->
<svg width="1026pt" height="211pt"
 viewBox="0.00 0.00 1026.00 211.00" xmlns="http://www.w3.org/2000/svg" xmlns:xlink="http://www.w3.org/1999/xlink">
<g id="graph0" class="graph" transform="scale(1 1) rotate(0) translate(4 207)">
<title>dependencies</title>
<polygon fill="white" stroke="transparent" points="-4,4 -4,-207 1022,-207 1022,4 -4,4"/>
<text text-anchor="start" x="488.01" y="-42.4" font-family="Times-12" font-weight="bold" font-size="14.00">Legend</text>
<polygon fill="#ffffb3" stroke="transparent" points="275,-10 275,-30 295,-30 295,-10 275,-10"/>
<text text-anchor="start" x="298.63" y="-15.4" font-family="Times-12" font-size="14.00"> &#160;Declarations</text>
<polygon fill="#8dd3c7" stroke="transparent" points="388,-10 388,-30 408,-30 408,-10 388,-10"/>
<text text-anchor="start" x="411.73" y="-15.4" font-family="Times-12" font-size="14.00"> &#160;Module</text>
<polygon fill="#80b1d3" stroke="transparent" points="474,-10 474,-30 494,-30 494,-10 474,-10"/>
<text text-anchor="start" x="497.78" y="-15.4" font-family="Times-12" font-size="14.00"> &#160;Bootstrap</text>
<polygon fill="#fdb462" stroke="transparent" points="571,-10 571,-30 591,-30 591,-10 571,-10"/>
<text text-anchor="start" x="594.67" y="-15.4" font-family="Times-12" font-size="14.00"> &#160;Providers</text>
<polygon fill="#fb8072" stroke="transparent" points="667,-10 667,-30 687,-30 687,-10 667,-10"/>
<text text-anchor="start" x="690.73" y="-15.4" font-family="Times-12" font-size="14.00"> &#160;Exports</text>
<g id="clust1" class="cluster">
<title>cluster_UserModule</title>
<polygon fill="none" stroke="black" stroke-dasharray="1,5" points="8,-70 8,-195 1010,-195 1010,-70 8,-70"/>
</g>
<g id="clust6" class="cluster">
<title>cluster_UserModule_providers</title>
<polygon fill="none" stroke="black" points="471,-78 471,-130 1002,-130 1002,-78 471,-78"/>
</g>
<g id="clust3" class="cluster">
<title>cluster_UserModule_imports</title>
<polygon fill="none" stroke="black" points="16,-78 16,-130 463,-130 463,-78 16,-78"/>
</g>
<!-- AdminModule -->
<g id="node1" class="node">
<title>AdminModule</title>
<polygon fill="#8dd3c7" stroke="black" points="455.44,-122 452.44,-126 431.44,-126 428.44,-122 356.56,-122 356.56,-86 455.44,-86 455.44,-122"/>
<text text-anchor="middle" x="406" y="-99.8" font-family="Times,serif" font-size="14.00">AdminModule</text>
</g>
<!-- UserModule -->
<g id="node5" class="node">
<title>UserModule</title>
<polygon fill="#8dd3c7" stroke="black" points="513.98,-187 510.98,-191 489.98,-191 486.98,-187 428.02,-187 428.02,-151 513.98,-151 513.98,-187"/>
<text text-anchor="middle" x="471" y="-164.8" font-family="Times,serif" font-size="14.00">UserModule</text>
</g>
<!-- AdminModule&#45;&gt;UserModule -->
<g id="edge1" class="edge">
<title>AdminModule&#45;&gt;UserModule</title>
<path fill="none" stroke="black" d="M441.62,-122.11C441.62,-122.11 441.62,-140.99 441.62,-140.99"/>
<polygon fill="black" stroke="black" points="438.12,-140.99 441.62,-150.99 445.12,-140.99 438.12,-140.99"/>
</g>
<!-- BaseModule -->
<g id="node2" class="node">
<title>BaseModule</title>
<polygon fill="#8dd3c7" stroke="black" points="338.26,-122 335.26,-126 314.26,-126 311.26,-122 251.74,-122 251.74,-86 338.26,-86 338.26,-122"/>
<text text-anchor="middle" x="295" y="-99.8" font-family="Times,serif" font-size="14.00">BaseModule</text>
</g>
<!-- BaseModule&#45;&gt;UserModule -->
<g id="edge2" class="edge">
<title>BaseModule&#45;&gt;UserModule</title>
<path fill="none" stroke="black" d="M295,-122.03C295,-138.4 295,-160 295,-160 295,-160 417.95,-160 417.95,-160"/>
<polygon fill="black" stroke="black" points="417.95,-163.5 427.95,-160 417.95,-156.5 417.95,-163.5"/>
</g>
<!-- ClientModule -->
<g id="node3" class="node">
<title>ClientModule</title>
<polygon fill="#8dd3c7" stroke="black" points="233.77,-122 230.77,-126 209.77,-126 206.77,-122 140.23,-122 140.23,-86 233.77,-86 233.77,-122"/>
<text text-anchor="middle" x="187" y="-99.8" font-family="Times,serif" font-size="14.00">ClientModule</text>
</g>
<!-- ClientModule&#45;&gt;UserModule -->
<g id="edge3" class="edge">
<title>ClientModule&#45;&gt;UserModule</title>
<path fill="none" stroke="black" d="M187,-122.11C187,-141.34 187,-169 187,-169 187,-169 417.87,-169 417.87,-169"/>
<polygon fill="black" stroke="black" points="417.87,-172.5 427.87,-169 417.87,-165.5 417.87,-172.5"/>
</g>
<!-- PrismaModule -->
<g id="node4" class="node">
<title>PrismaModule</title>
<polygon fill="#8dd3c7" stroke="black" points="122.43,-122 119.43,-126 98.43,-126 95.43,-122 23.57,-122 23.57,-86 122.43,-86 122.43,-122"/>
<text text-anchor="middle" x="73" y="-99.8" font-family="Times,serif" font-size="14.00">PrismaModule</text>
</g>
<!-- PrismaModule&#45;&gt;UserModule -->
<g id="edge4" class="edge">
<title>PrismaModule&#45;&gt;UserModule</title>
<path fill="none" stroke="black" d="M73,-122.29C73,-144.21 73,-178 73,-178 73,-178 417.65,-178 417.65,-178"/>
<polygon fill="black" stroke="black" points="417.65,-181.5 427.65,-178 417.65,-174.5 417.65,-181.5"/>
</g>
<!-- AdminService -->
<g id="node6" class="node">
<title>AdminService</title>
<ellipse fill="#fdb462" stroke="black" cx="927" cy="-104" rx="66.63" ry="18"/>
<text text-anchor="middle" x="927" y="-99.8" font-family="Times,serif" font-size="14.00">AdminService</text>
</g>
<!-- AdminService&#45;&gt;UserModule -->
<g id="edge5" class="edge">
<title>AdminService&#45;&gt;UserModule</title>
<path fill="none" stroke="black" d="M927,-122.29C927,-144.21 927,-178 927,-178 927,-178 524.31,-178 524.31,-178"/>
<polygon fill="black" stroke="black" points="524.31,-174.5 514.31,-178 524.31,-181.5 524.31,-174.5"/>
</g>
<!-- AtStrategy -->
<g id="node7" class="node">
<title>AtStrategy</title>
<ellipse fill="#fdb462" stroke="black" cx="789" cy="-104" rx="52.74" ry="18"/>
<text text-anchor="middle" x="789" y="-99.8" font-family="Times,serif" font-size="14.00">AtStrategy</text>
</g>
<!-- AtStrategy&#45;&gt;UserModule -->
<g id="edge6" class="edge">
<title>AtStrategy&#45;&gt;UserModule</title>
<path fill="none" stroke="black" d="M789,-122.11C789,-141.34 789,-169 789,-169 789,-169 524.22,-169 524.22,-169"/>
<polygon fill="black" stroke="black" points="524.22,-165.5 514.22,-169 524.22,-172.5 524.22,-165.5"/>
</g>
<!-- RtStrategy -->
<g id="node8" class="node">
<title>RtStrategy</title>
<ellipse fill="#fdb462" stroke="black" cx="666" cy="-104" rx="52.18" ry="18"/>
<text text-anchor="middle" x="666" y="-99.8" font-family="Times,serif" font-size="14.00">RtStrategy</text>
</g>
<!-- RtStrategy&#45;&gt;UserModule -->
<g id="edge7" class="edge">
<title>RtStrategy&#45;&gt;UserModule</title>
<path fill="none" stroke="black" d="M666,-122.03C666,-138.4 666,-160 666,-160 666,-160 524.28,-160 524.28,-160"/>
<polygon fill="black" stroke="black" points="524.28,-156.5 514.28,-160 524.28,-163.5 524.28,-156.5"/>
</g>
<!-- UserService -->
<g id="node9" class="node">
<title>UserService</title>
<ellipse fill="#fdb462" stroke="black" cx="537" cy="-104" rx="58.44" ry="18"/>
<text text-anchor="middle" x="537" y="-99.8" font-family="Times,serif" font-size="14.00">UserService</text>
</g>
<!-- UserService&#45;&gt;UserModule -->
<g id="edge8" class="edge">
<title>UserService&#45;&gt;UserModule</title>
<path fill="none" stroke="black" d="M496.38,-117.15C496.38,-117.15 496.38,-140.69 496.38,-140.69"/>
<polygon fill="black" stroke="black" points="492.88,-140.69 496.38,-150.69 499.88,-140.69 492.88,-140.69"/>
</g>
</g>
</svg>
