<?xml version="1.0" encoding="UTF-8" standalone="no"?>
<!DOCTYPE svg PUBLIC "-//W3C//DTD SVG 1.1//EN"
 "http://www.w3.org/Graphics/SVG/1.1/DTD/svg11.dtd">
<!-- Generated by graphviz version 2.47.0 (20210316.0004)
 -->
<!-- Title: dependencies Pages: 1 -->
<svg width="680pt" height="211pt"
 viewBox="0.00 0.00 680.00 211.00" xmlns="http://www.w3.org/2000/svg" xmlns:xlink="http://www.w3.org/1999/xlink">
<g id="graph0" class="graph" transform="scale(1 1) rotate(0) translate(4 207)">
<title>dependencies</title>
<polygon fill="white" stroke="transparent" points="-4,4 -4,-207 676,-207 676,4 -4,4"/>
<text text-anchor="start" x="315.01" y="-42.4" font-family="Times-12" font-weight="bold" font-size="14.00">Legend</text>
<polygon fill="#ffffb3" stroke="transparent" points="102,-10 102,-30 122,-30 122,-10 102,-10"/>
<text text-anchor="start" x="125.63" y="-15.4" font-family="Times-12" font-size="14.00"> &#160;Declarations</text>
<polygon fill="#8dd3c7" stroke="transparent" points="215,-10 215,-30 235,-30 235,-10 215,-10"/>
<text text-anchor="start" x="238.73" y="-15.4" font-family="Times-12" font-size="14.00"> &#160;Module</text>
<polygon fill="#80b1d3" stroke="transparent" points="301,-10 301,-30 321,-30 321,-10 301,-10"/>
<text text-anchor="start" x="324.78" y="-15.4" font-family="Times-12" font-size="14.00"> &#160;Bootstrap</text>
<polygon fill="#fdb462" stroke="transparent" points="398,-10 398,-30 418,-30 418,-10 398,-10"/>
<text text-anchor="start" x="421.67" y="-15.4" font-family="Times-12" font-size="14.00"> &#160;Providers</text>
<polygon fill="#fb8072" stroke="transparent" points="494,-10 494,-30 514,-30 514,-10 494,-10"/>
<text text-anchor="start" x="517.73" y="-15.4" font-family="Times-12" font-size="14.00"> &#160;Exports</text>
<g id="clust1" class="cluster">
<title>cluster_CategoriesModule</title>
<polygon fill="none" stroke="black" stroke-dasharray="1,5" points="8,-70 8,-195 664,-195 664,-70 8,-70"/>
</g>
<g id="clust6" class="cluster">
<title>cluster_CategoriesModule_providers</title>
<polygon fill="none" stroke="black" points="478,-78 478,-130 656,-130 656,-78 478,-78"/>
</g>
<g id="clust3" class="cluster">
<title>cluster_CategoriesModule_imports</title>
<polygon fill="none" stroke="black" points="16,-78 16,-130 470,-130 470,-78 16,-78"/>
</g>
<!-- AdminModule -->
<g id="node1" class="node">
<title>AdminModule</title>
<polygon fill="#8dd3c7" stroke="black" points="462.44,-122 459.44,-126 438.44,-126 435.44,-122 363.56,-122 363.56,-86 462.44,-86 462.44,-122"/>
<text text-anchor="middle" x="413" y="-99.8" font-family="Times,serif" font-size="14.00">AdminModule</text>
</g>
<!-- CategoriesModule -->
<g id="node5" class="node">
<title>CategoriesModule</title>
<polygon fill="#8dd3c7" stroke="black" points="358.92,-187 355.92,-191 334.92,-191 331.92,-187 239.08,-187 239.08,-151 358.92,-151 358.92,-187"/>
<text text-anchor="middle" x="299" y="-164.8" font-family="Times,serif" font-size="14.00">CategoriesModule</text>
</g>
<!-- AdminModule&#45;&gt;CategoriesModule -->
<g id="edge1" class="edge">
<title>AdminModule&#45;&gt;CategoriesModule</title>
<path fill="none" stroke="black" d="M363.72,-104C356.97,-104 352.3,-104 352.3,-104 352.3,-104 352.3,-140.89 352.3,-140.89"/>
<polygon fill="black" stroke="black" points="348.8,-140.89 352.3,-150.89 355.8,-140.89 348.8,-140.89"/>
</g>
<!-- ClientModule -->
<g id="node2" class="node">
<title>ClientModule</title>
<polygon fill="#8dd3c7" stroke="black" points="345.77,-122 342.77,-126 321.77,-126 318.77,-122 252.23,-122 252.23,-86 345.77,-86 345.77,-122"/>
<text text-anchor="middle" x="299" y="-99.8" font-family="Times,serif" font-size="14.00">ClientModule</text>
</g>
<!-- ClientModule&#45;&gt;CategoriesModule -->
<g id="edge2" class="edge">
<title>ClientModule&#45;&gt;CategoriesModule</title>
<path fill="none" stroke="black" d="M299,-122.11C299,-122.11 299,-140.99 299,-140.99"/>
<polygon fill="black" stroke="black" points="295.5,-140.99 299,-150.99 302.5,-140.99 295.5,-140.99"/>
</g>
<!-- ImageModule -->
<g id="node3" class="node">
<title>ImageModule</title>
<polygon fill="#8dd3c7" stroke="black" points="234.03,-122 231.03,-126 210.03,-126 207.03,-122 139.97,-122 139.97,-86 234.03,-86 234.03,-122"/>
<text text-anchor="middle" x="187" y="-99.8" font-family="Times,serif" font-size="14.00">ImageModule</text>
</g>
<!-- ImageModule&#45;&gt;CategoriesModule -->
<g id="edge3" class="edge">
<title>ImageModule&#45;&gt;CategoriesModule</title>
<path fill="none" stroke="black" d="M234.1,-104C240.93,-104 245.7,-104 245.7,-104 245.7,-104 245.7,-140.89 245.7,-140.89"/>
<polygon fill="black" stroke="black" points="242.2,-140.89 245.7,-150.89 249.2,-140.89 242.2,-140.89"/>
</g>
<!-- SharedModule -->
<g id="node4" class="node">
<title>SharedModule</title>
<polygon fill="#8dd3c7" stroke="black" points="122.42,-122 119.42,-126 98.42,-126 95.42,-122 23.58,-122 23.58,-86 122.42,-86 122.42,-122"/>
<text text-anchor="middle" x="73" y="-99.8" font-family="Times,serif" font-size="14.00">SharedModule</text>
</g>
<!-- SharedModule&#45;&gt;CategoriesModule -->
<g id="edge4" class="edge">
<title>SharedModule&#45;&gt;CategoriesModule</title>
<path fill="none" stroke="black" d="M73,-122.11C73,-141.34 73,-169 73,-169 73,-169 229.03,-169 229.03,-169"/>
<polygon fill="black" stroke="black" points="229.03,-172.5 239.03,-169 229.03,-165.5 229.03,-172.5"/>
</g>
<!-- CategoriesService -->
<g id="node6" class="node">
<title>CategoriesService</title>
<ellipse fill="#fdb462" stroke="black" cx="567" cy="-104" rx="81.07" ry="18"/>
<text text-anchor="middle" x="567" y="-99.8" font-family="Times,serif" font-size="14.00">CategoriesService</text>
</g>
<!-- CategoriesService&#45;&gt;CategoriesModule -->
<g id="edge5" class="edge">
<title>CategoriesService&#45;&gt;CategoriesModule</title>
<path fill="none" stroke="black" d="M567,-122.11C567,-141.34 567,-169 567,-169 567,-169 368.81,-169 368.81,-169"/>
<polygon fill="black" stroke="black" points="368.81,-165.5 358.81,-169 368.81,-172.5 368.81,-165.5"/>
</g>
</g>
</svg>
