<?xml version="1.0" encoding="UTF-8" standalone="no"?>
<!DOCTYPE svg PUBLIC "-//W3C//DTD SVG 1.1//EN"
 "http://www.w3.org/Graphics/SVG/1.1/DTD/svg11.dtd">
<!-- Generated by graphviz version 2.47.0 (20210316.0004)
 -->
<!-- Title: dependencies Pages: 1 -->
<svg width="1080pt" height="211pt"
 viewBox="0.00 0.00 1080.00 211.00" xmlns="http://www.w3.org/2000/svg" xmlns:xlink="http://www.w3.org/1999/xlink">
<g id="graph0" class="graph" transform="scale(1 1) rotate(0) translate(4 207)">
<title>dependencies</title>
<polygon fill="white" stroke="transparent" points="-4,4 -4,-207 1076,-207 1076,4 -4,4"/>
<text text-anchor="start" x="515.01" y="-42.4" font-family="Times-12" font-weight="bold" font-size="14.00">Legend</text>
<polygon fill="#ffffb3" stroke="transparent" points="302,-10 302,-30 322,-30 322,-10 302,-10"/>
<text text-anchor="start" x="325.63" y="-15.4" font-family="Times-12" font-size="14.00"> &#160;Declarations</text>
<polygon fill="#8dd3c7" stroke="transparent" points="415,-10 415,-30 435,-30 435,-10 415,-10"/>
<text text-anchor="start" x="438.73" y="-15.4" font-family="Times-12" font-size="14.00"> &#160;Module</text>
<polygon fill="#80b1d3" stroke="transparent" points="501,-10 501,-30 521,-30 521,-10 501,-10"/>
<text text-anchor="start" x="524.78" y="-15.4" font-family="Times-12" font-size="14.00"> &#160;Bootstrap</text>
<polygon fill="#fdb462" stroke="transparent" points="598,-10 598,-30 618,-30 618,-10 598,-10"/>
<text text-anchor="start" x="621.67" y="-15.4" font-family="Times-12" font-size="14.00"> &#160;Providers</text>
<polygon fill="#fb8072" stroke="transparent" points="694,-10 694,-30 714,-30 714,-10 694,-10"/>
<text text-anchor="start" x="717.73" y="-15.4" font-family="Times-12" font-size="14.00"> &#160;Exports</text>
<g id="clust1" class="cluster">
<title>cluster_AuthModule</title>
<polygon fill="none" stroke="black" stroke-dasharray="1,5" points="8,-70 8,-195 1064,-195 1064,-70 8,-70"/>
</g>
<g id="clust3" class="cluster">
<title>cluster_AuthModule_imports</title>
<polygon fill="none" stroke="black" points="609,-78 609,-130 1056,-130 1056,-78 609,-78"/>
</g>
<g id="clust6" class="cluster">
<title>cluster_AuthModule_providers</title>
<polygon fill="none" stroke="black" points="16,-78 16,-130 601,-130 601,-78 16,-78"/>
</g>
<!-- AdminModule -->
<g id="node1" class="node">
<title>AdminModule</title>
<polygon fill="#8dd3c7" stroke="black" points="1048.44,-122 1045.44,-126 1024.44,-126 1021.44,-122 949.56,-122 949.56,-86 1048.44,-86 1048.44,-122"/>
<text text-anchor="middle" x="999" y="-99.8" font-family="Times,serif" font-size="14.00">AdminModule</text>
</g>
<!-- AuthModule -->
<g id="node5" class="node">
<title>AuthModule</title>
<polygon fill="#8dd3c7" stroke="black" points="646.55,-187 643.55,-191 622.55,-191 619.55,-187 559.45,-187 559.45,-151 646.55,-151 646.55,-187"/>
<text text-anchor="middle" x="603" y="-164.8" font-family="Times,serif" font-size="14.00">AuthModule</text>
</g>
<!-- AdminModule&#45;&gt;AuthModule -->
<g id="edge1" class="edge">
<title>AdminModule&#45;&gt;AuthModule</title>
<path fill="none" stroke="black" d="M999,-122.29C999,-144.21 999,-178 999,-178 999,-178 656.89,-178 656.89,-178"/>
<polygon fill="black" stroke="black" points="656.89,-174.5 646.89,-178 656.89,-181.5 656.89,-174.5"/>
</g>
<!-- BaseModule -->
<g id="node2" class="node">
<title>BaseModule</title>
<polygon fill="#8dd3c7" stroke="black" points="931.26,-122 928.26,-126 907.26,-126 904.26,-122 844.74,-122 844.74,-86 931.26,-86 931.26,-122"/>
<text text-anchor="middle" x="888" y="-99.8" font-family="Times,serif" font-size="14.00">BaseModule</text>
</g>
<!-- BaseModule&#45;&gt;AuthModule -->
<g id="edge2" class="edge">
<title>BaseModule&#45;&gt;AuthModule</title>
<path fill="none" stroke="black" d="M888,-122.11C888,-141.34 888,-169 888,-169 888,-169 656.6,-169 656.6,-169"/>
<polygon fill="black" stroke="black" points="656.6,-165.5 646.6,-169 656.6,-172.5 656.6,-165.5"/>
</g>
<!-- ClientModule -->
<g id="node3" class="node">
<title>ClientModule</title>
<polygon fill="#8dd3c7" stroke="black" points="826.77,-122 823.77,-126 802.77,-126 799.77,-122 733.23,-122 733.23,-86 826.77,-86 826.77,-122"/>
<text text-anchor="middle" x="780" y="-99.8" font-family="Times,serif" font-size="14.00">ClientModule</text>
</g>
<!-- ClientModule&#45;&gt;AuthModule -->
<g id="edge3" class="edge">
<title>ClientModule&#45;&gt;AuthModule</title>
<path fill="none" stroke="black" d="M780,-122.03C780,-138.4 780,-160 780,-160 780,-160 656.75,-160 656.75,-160"/>
<polygon fill="black" stroke="black" points="656.75,-156.5 646.75,-160 656.75,-163.5 656.75,-156.5"/>
</g>
<!-- PrismaModule -->
<g id="node4" class="node">
<title>PrismaModule</title>
<polygon fill="#8dd3c7" stroke="black" points="715.43,-122 712.43,-126 691.43,-126 688.43,-122 616.57,-122 616.57,-86 715.43,-86 715.43,-122"/>
<text text-anchor="middle" x="666" y="-99.8" font-family="Times,serif" font-size="14.00">PrismaModule</text>
</g>
<!-- PrismaModule&#45;&gt;AuthModule -->
<g id="edge4" class="edge">
<title>PrismaModule&#45;&gt;AuthModule</title>
<path fill="none" stroke="black" d="M631.78,-122.11C631.78,-122.11 631.78,-140.99 631.78,-140.99"/>
<polygon fill="black" stroke="black" points="628.28,-140.99 631.78,-150.99 635.28,-140.99 628.28,-140.99"/>
</g>
<!-- AtStrategy -->
<g id="node6" class="node">
<title>AtStrategy</title>
<ellipse fill="#fdb462" stroke="black" cx="540" cy="-104" rx="52.74" ry="18"/>
<text text-anchor="middle" x="540" y="-99.8" font-family="Times,serif" font-size="14.00">AtStrategy</text>
</g>
<!-- AtStrategy&#45;&gt;AuthModule -->
<g id="edge5" class="edge">
<title>AtStrategy&#45;&gt;AuthModule</title>
<path fill="none" stroke="black" d="M576.05,-117.47C576.05,-117.47 576.05,-140.86 576.05,-140.86"/>
<polygon fill="black" stroke="black" points="572.55,-140.86 576.05,-150.86 579.55,-140.86 572.55,-140.86"/>
</g>
<!-- FacebookStrategy -->
<g id="node7" class="node">
<title>FacebookStrategy</title>
<ellipse fill="#fdb462" stroke="black" cx="388" cy="-104" rx="80.52" ry="18"/>
<text text-anchor="middle" x="388" y="-99.8" font-family="Times,serif" font-size="14.00">FacebookStrategy</text>
</g>
<!-- FacebookStrategy&#45;&gt;AuthModule -->
<g id="edge6" class="edge">
<title>FacebookStrategy&#45;&gt;AuthModule</title>
<path fill="none" stroke="black" d="M388,-122.03C388,-138.4 388,-160 388,-160 388,-160 549.23,-160 549.23,-160"/>
<polygon fill="black" stroke="black" points="549.23,-163.5 559.23,-160 549.23,-156.5 549.23,-163.5"/>
</g>
<!-- GoogleStrategy -->
<g id="node8" class="node">
<title>GoogleStrategy</title>
<ellipse fill="#fdb462" stroke="black" cx="218" cy="-104" rx="71.79" ry="18"/>
<text text-anchor="middle" x="218" y="-99.8" font-family="Times,serif" font-size="14.00">GoogleStrategy</text>
</g>
<!-- GoogleStrategy&#45;&gt;AuthModule -->
<g id="edge7" class="edge">
<title>GoogleStrategy&#45;&gt;AuthModule</title>
<path fill="none" stroke="black" d="M218,-122.11C218,-141.34 218,-169 218,-169 218,-169 549.21,-169 549.21,-169"/>
<polygon fill="black" stroke="black" points="549.21,-172.5 559.21,-169 549.21,-165.5 549.21,-172.5"/>
</g>
<!-- RtStrategy -->
<g id="node9" class="node">
<title>RtStrategy</title>
<ellipse fill="#fdb462" stroke="black" cx="76" cy="-104" rx="52.18" ry="18"/>
<text text-anchor="middle" x="76" y="-99.8" font-family="Times,serif" font-size="14.00">RtStrategy</text>
</g>
<!-- RtStrategy&#45;&gt;AuthModule -->
<g id="edge8" class="edge">
<title>RtStrategy&#45;&gt;AuthModule</title>
<path fill="none" stroke="black" d="M76,-122.29C76,-144.21 76,-178 76,-178 76,-178 549.43,-178 549.43,-178"/>
<polygon fill="black" stroke="black" points="549.43,-181.5 559.43,-178 549.42,-174.5 549.43,-181.5"/>
</g>
</g>
</svg>
