<?xml version="1.0" encoding="UTF-8" standalone="no"?>
<!DOCTYPE svg PUBLIC "-//W3C//DTD SVG 1.1//EN"
 "http://www.w3.org/Graphics/SVG/1.1/DTD/svg11.dtd">
<!-- Generated by graphviz version 2.47.0 (20210316.0004)
 -->
<!-- Title: dependencies Pages: 1 -->
<svg width="524pt" height="211pt"
 viewBox="0.00 0.00 524.00 211.00" xmlns="http://www.w3.org/2000/svg" xmlns:xlink="http://www.w3.org/1999/xlink">
<g id="graph0" class="graph" transform="scale(1 1) rotate(0) translate(4 207)">
<title>dependencies</title>
<polygon fill="white" stroke="transparent" points="-4,4 -4,-207 520,-207 520,4 -4,4"/>
<text text-anchor="start" x="237.01" y="-42.4" font-family="Times-12" font-weight="bold" font-size="14.00">Legend</text>
<polygon fill="#ffffb3" stroke="transparent" points="24,-10 24,-30 44,-30 44,-10 24,-10"/>
<text text-anchor="start" x="47.63" y="-15.4" font-family="Times-12" font-size="14.00"> &#160;Declarations</text>
<polygon fill="#8dd3c7" stroke="transparent" points="137,-10 137,-30 157,-30 157,-10 137,-10"/>
<text text-anchor="start" x="160.73" y="-15.4" font-family="Times-12" font-size="14.00"> &#160;Module</text>
<polygon fill="#80b1d3" stroke="transparent" points="223,-10 223,-30 243,-30 243,-10 223,-10"/>
<text text-anchor="start" x="246.78" y="-15.4" font-family="Times-12" font-size="14.00"> &#160;Bootstrap</text>
<polygon fill="#fdb462" stroke="transparent" points="320,-10 320,-30 340,-30 340,-10 320,-10"/>
<text text-anchor="start" x="343.67" y="-15.4" font-family="Times-12" font-size="14.00"> &#160;Providers</text>
<polygon fill="#fb8072" stroke="transparent" points="416,-10 416,-30 436,-30 436,-10 416,-10"/>
<text text-anchor="start" x="439.73" y="-15.4" font-family="Times-12" font-size="14.00"> &#160;Exports</text>
<g id="clust1" class="cluster">
<title>cluster_PartsModule</title>
<polygon fill="none" stroke="black" stroke-dasharray="1,5" points="8,-70 8,-195 508,-195 508,-70 8,-70"/>
</g>
<g id="clust6" class="cluster">
<title>cluster_PartsModule_providers</title>
<polygon fill="none" stroke="black" points="366,-78 366,-130 500,-130 500,-78 366,-78"/>
</g>
<g id="clust3" class="cluster">
<title>cluster_PartsModule_imports</title>
<polygon fill="none" stroke="black" points="16,-78 16,-130 358,-130 358,-78 16,-78"/>
</g>
<!-- AdminModule -->
<g id="node1" class="node">
<title>AdminModule</title>
<polygon fill="#8dd3c7" stroke="black" points="350.44,-122 347.44,-126 326.44,-126 323.44,-122 251.56,-122 251.56,-86 350.44,-86 350.44,-122"/>
<text text-anchor="middle" x="301" y="-99.8" font-family="Times,serif" font-size="14.00">AdminModule</text>
</g>
<!-- PartsModule -->
<g id="node4" class="node">
<title>PartsModule</title>
<polygon fill="#8dd3c7" stroke="black" points="287.54,-187 284.54,-191 263.54,-191 260.54,-187 200.46,-187 200.46,-151 287.54,-151 287.54,-187"/>
<text text-anchor="middle" x="244" y="-164.8" font-family="Times,serif" font-size="14.00">PartsModule</text>
</g>
<!-- AdminModule&#45;&gt;PartsModule -->
<g id="edge1" class="edge">
<title>AdminModule&#45;&gt;PartsModule</title>
<path fill="none" stroke="black" d="M269.78,-122.11C269.78,-122.11 269.78,-140.99 269.78,-140.99"/>
<polygon fill="black" stroke="black" points="266.28,-140.99 269.78,-150.99 273.28,-140.99 266.28,-140.99"/>
</g>
<!-- ClientModule -->
<g id="node2" class="node">
<title>ClientModule</title>
<polygon fill="#8dd3c7" stroke="black" points="233.77,-122 230.77,-126 209.77,-126 206.77,-122 140.23,-122 140.23,-86 233.77,-86 233.77,-122"/>
<text text-anchor="middle" x="187" y="-99.8" font-family="Times,serif" font-size="14.00">ClientModule</text>
</g>
<!-- ClientModule&#45;&gt;PartsModule -->
<g id="edge2" class="edge">
<title>ClientModule&#45;&gt;PartsModule</title>
<path fill="none" stroke="black" d="M217.06,-122.11C217.06,-122.11 217.06,-140.99 217.06,-140.99"/>
<polygon fill="black" stroke="black" points="213.56,-140.99 217.06,-150.99 220.56,-140.99 213.56,-140.99"/>
</g>
<!-- SharedModule -->
<g id="node3" class="node">
<title>SharedModule</title>
<polygon fill="#8dd3c7" stroke="black" points="122.42,-122 119.42,-126 98.42,-126 95.42,-122 23.58,-122 23.58,-86 122.42,-86 122.42,-122"/>
<text text-anchor="middle" x="73" y="-99.8" font-family="Times,serif" font-size="14.00">SharedModule</text>
</g>
<!-- SharedModule&#45;&gt;PartsModule -->
<g id="edge3" class="edge">
<title>SharedModule&#45;&gt;PartsModule</title>
<path fill="none" stroke="black" d="M73,-122.11C73,-141.34 73,-169 73,-169 73,-169 190.41,-169 190.41,-169"/>
<polygon fill="black" stroke="black" points="190.41,-172.5 200.41,-169 190.41,-165.5 190.41,-172.5"/>
</g>
<!-- PartsService -->
<g id="node5" class="node">
<title>PartsService</title>
<ellipse fill="#fdb462" stroke="black" cx="433" cy="-104" rx="59.1" ry="18"/>
<text text-anchor="middle" x="433" y="-99.8" font-family="Times,serif" font-size="14.00">PartsService</text>
</g>
<!-- PartsService&#45;&gt;PartsModule -->
<g id="edge4" class="edge">
<title>PartsService&#45;&gt;PartsModule</title>
<path fill="none" stroke="black" d="M433,-122.11C433,-141.34 433,-169 433,-169 433,-169 297.84,-169 297.84,-169"/>
<polygon fill="black" stroke="black" points="297.84,-165.5 287.84,-169 297.84,-172.5 297.84,-165.5"/>
</g>
</g>
</svg>
