<?xml version="1.0" encoding="UTF-8" standalone="no"?>
<!DOCTYPE svg PUBLIC "-//W3C//DTD SVG 1.1//EN"
 "http://www.w3.org/Graphics/SVG/1.1/DTD/svg11.dtd">
<!-- Generated by graphviz version 2.47.0 (20210316.0004)
 -->
<!-- Title: dependencies Pages: 1 -->
<svg width="504pt" height="284pt"
 viewBox="0.00 0.00 504.00 284.00" xmlns="http://www.w3.org/2000/svg" xmlns:xlink="http://www.w3.org/1999/xlink">
<g id="graph0" class="graph" transform="scale(1 1) rotate(0) translate(4 280)">
<title>dependencies</title>
<polygon fill="white" stroke="transparent" points="-4,4 -4,-280 500,-280 500,4 -4,4"/>
<text text-anchor="start" x="227.01" y="-42.4" font-family="Times-12" font-weight="bold" font-size="14.00">Legend</text>
<polygon fill="#ffffb3" stroke="transparent" points="14,-10 14,-30 34,-30 34,-10 14,-10"/>
<text text-anchor="start" x="37.63" y="-15.4" font-family="Times-12" font-size="14.00"> &#160;Declarations</text>
<polygon fill="#8dd3c7" stroke="transparent" points="127,-10 127,-30 147,-30 147,-10 127,-10"/>
<text text-anchor="start" x="150.73" y="-15.4" font-family="Times-12" font-size="14.00"> &#160;Module</text>
<polygon fill="#80b1d3" stroke="transparent" points="213,-10 213,-30 233,-30 233,-10 213,-10"/>
<text text-anchor="start" x="236.78" y="-15.4" font-family="Times-12" font-size="14.00"> &#160;Bootstrap</text>
<polygon fill="#fdb462" stroke="transparent" points="310,-10 310,-30 330,-30 330,-10 310,-10"/>
<text text-anchor="start" x="333.67" y="-15.4" font-family="Times-12" font-size="14.00"> &#160;Providers</text>
<polygon fill="#fb8072" stroke="transparent" points="406,-10 406,-30 426,-30 426,-10 406,-10"/>
<text text-anchor="start" x="429.73" y="-15.4" font-family="Times-12" font-size="14.00"> &#160;Exports</text>
<g id="clust1" class="cluster">
<title>cluster_ImageModule</title>
<polygon fill="none" stroke="black" stroke-dasharray="1,5" points="49,-70 49,-268 447,-268 447,-70 49,-70"/>
</g>
<g id="clust4" class="cluster">
<title>cluster_ImageModule_exports</title>
<polygon fill="none" stroke="black" points="174,-208 174,-260 286,-260 286,-208 174,-208"/>
</g>
<g id="clust6" class="cluster">
<title>cluster_ImageModule_providers</title>
<polygon fill="none" stroke="black" points="295,-78 295,-130 439,-130 439,-78 295,-78"/>
</g>
<g id="clust3" class="cluster">
<title>cluster_ImageModule_imports</title>
<polygon fill="none" stroke="black" points="57,-78 57,-130 287,-130 287,-78 57,-78"/>
</g>
<!-- PrismaModule -->
<g id="node1" class="node">
<title>PrismaModule</title>
<polygon fill="#8dd3c7" stroke="black" points="279.43,-122 276.43,-126 255.43,-126 252.43,-122 180.57,-122 180.57,-86 279.43,-86 279.43,-122"/>
<text text-anchor="middle" x="230" y="-99.8" font-family="Times,serif" font-size="14.00">PrismaModule</text>
</g>
<!-- ImageModule -->
<g id="node3" class="node">
<title>ImageModule</title>
<polygon fill="#8dd3c7" stroke="black" points="277.03,-187 274.03,-191 253.03,-191 250.03,-187 182.97,-187 182.97,-151 277.03,-151 277.03,-187"/>
<text text-anchor="middle" x="230" y="-164.8" font-family="Times,serif" font-size="14.00">ImageModule</text>
</g>
<!-- PrismaModule&#45;&gt;ImageModule -->
<g id="edge1" class="edge">
<title>PrismaModule&#45;&gt;ImageModule</title>
<path fill="none" stroke="black" d="M230,-122.11C230,-122.11 230,-140.99 230,-140.99"/>
<polygon fill="black" stroke="black" points="226.5,-140.99 230,-150.99 233.5,-140.99 226.5,-140.99"/>
</g>
<!-- SharedModule -->
<g id="node2" class="node">
<title>SharedModule</title>
<polygon fill="#8dd3c7" stroke="black" points="163.42,-122 160.42,-126 139.42,-126 136.42,-122 64.58,-122 64.58,-86 163.42,-86 163.42,-122"/>
<text text-anchor="middle" x="114" y="-99.8" font-family="Times,serif" font-size="14.00">SharedModule</text>
</g>
<!-- SharedModule&#45;&gt;ImageModule -->
<g id="edge2" class="edge">
<title>SharedModule&#45;&gt;ImageModule</title>
<path fill="none" stroke="black" d="M114,-122.11C114,-141.34 114,-169 114,-169 114,-169 172.82,-169 172.82,-169"/>
<polygon fill="black" stroke="black" points="172.82,-172.5 182.82,-169 172.82,-165.5 172.82,-172.5"/>
</g>
<!-- ImageService  -->
<g id="node4" class="node">
<title>ImageService </title>
<polygon fill="#fb8072" stroke="black" points="278.46,-252 181.54,-252 181.54,-216 278.46,-216 278.46,-252"/>
<text text-anchor="middle" x="230" y="-229.8" font-family="Times,serif" font-size="14.00">ImageService </text>
</g>
<!-- ImageModule&#45;&gt;ImageService  -->
<g id="edge3" class="edge">
<title>ImageModule&#45;&gt;ImageService </title>
<path fill="none" stroke="black" stroke-dasharray="5,2" d="M230,-187.11C230,-187.11 230,-205.99 230,-205.99"/>
<polygon fill="black" stroke="black" points="226.5,-205.99 230,-215.99 233.5,-205.99 226.5,-205.99"/>
</g>
<!-- ImageService -->
<g id="node5" class="node">
<title>ImageService</title>
<ellipse fill="#fdb462" stroke="black" cx="367" cy="-104" rx="64.24" ry="18"/>
<text text-anchor="middle" x="367" y="-99.8" font-family="Times,serif" font-size="14.00">ImageService</text>
</g>
<!-- ImageService&#45;&gt;ImageModule -->
<g id="edge4" class="edge">
<title>ImageService&#45;&gt;ImageModule</title>
<path fill="none" stroke="black" d="M367,-122.11C367,-141.34 367,-169 367,-169 367,-169 287.15,-169 287.15,-169"/>
<polygon fill="black" stroke="black" points="287.15,-165.5 277.15,-169 287.15,-172.5 287.15,-165.5"/>
</g>
</g>
</svg>
