<?xml version="1.0" encoding="UTF-8" standalone="no"?>
<!DOCTYPE svg PUBLIC "-//W3C//DTD SVG 1.1//EN"
 "http://www.w3.org/Graphics/SVG/1.1/DTD/svg11.dtd">
<!-- Generated by graphviz version 2.47.0 (20210316.0004)
 -->
<!-- Title: dependencies Pages: 1 -->
<svg width="548pt" height="211pt"
 viewBox="0.00 0.00 548.00 211.00" xmlns="http://www.w3.org/2000/svg" xmlns:xlink="http://www.w3.org/1999/xlink">
<g id="graph0" class="graph" transform="scale(1 1) rotate(0) translate(4 207)">
<title>dependencies</title>
<polygon fill="white" stroke="transparent" points="-4,4 -4,-207 544,-207 544,4 -4,4"/>
<text text-anchor="start" x="249.01" y="-42.4" font-family="Times-12" font-weight="bold" font-size="14.00">Legend</text>
<polygon fill="#ffffb3" stroke="transparent" points="36,-10 36,-30 56,-30 56,-10 36,-10"/>
<text text-anchor="start" x="59.63" y="-15.4" font-family="Times-12" font-size="14.00"> &#160;Declarations</text>
<polygon fill="#8dd3c7" stroke="transparent" points="149,-10 149,-30 169,-30 169,-10 149,-10"/>
<text text-anchor="start" x="172.73" y="-15.4" font-family="Times-12" font-size="14.00"> &#160;Module</text>
<polygon fill="#80b1d3" stroke="transparent" points="235,-10 235,-30 255,-30 255,-10 235,-10"/>
<text text-anchor="start" x="258.78" y="-15.4" font-family="Times-12" font-size="14.00"> &#160;Bootstrap</text>
<polygon fill="#fdb462" stroke="transparent" points="332,-10 332,-30 352,-30 352,-10 332,-10"/>
<text text-anchor="start" x="355.67" y="-15.4" font-family="Times-12" font-size="14.00"> &#160;Providers</text>
<polygon fill="#fb8072" stroke="transparent" points="428,-10 428,-30 448,-30 448,-10 428,-10"/>
<text text-anchor="start" x="451.73" y="-15.4" font-family="Times-12" font-size="14.00"> &#160;Exports</text>
<g id="clust1" class="cluster">
<title>cluster_LessonsModule</title>
<polygon fill="none" stroke="black" stroke-dasharray="1,5" points="8,-70 8,-195 532,-195 532,-70 8,-70"/>
</g>
<g id="clust3" class="cluster">
<title>cluster_LessonsModule_imports</title>
<polygon fill="none" stroke="black" points="182,-78 182,-130 524,-130 524,-78 182,-78"/>
</g>
<g id="clust6" class="cluster">
<title>cluster_LessonsModule_providers</title>
<polygon fill="none" stroke="black" points="16,-78 16,-130 174,-130 174,-78 16,-78"/>
</g>
<!-- AdminModule -->
<g id="node1" class="node">
<title>AdminModule</title>
<polygon fill="#8dd3c7" stroke="black" points="516.44,-122 513.44,-126 492.44,-126 489.44,-122 417.56,-122 417.56,-86 516.44,-86 516.44,-122"/>
<text text-anchor="middle" x="467" y="-99.8" font-family="Times,serif" font-size="14.00">AdminModule</text>
</g>
<!-- LessonsModule -->
<g id="node4" class="node">
<title>LessonsModule</title>
<polygon fill="#8dd3c7" stroke="black" points="348.15,-187 345.15,-191 324.15,-191 321.15,-187 243.85,-187 243.85,-151 348.15,-151 348.15,-187"/>
<text text-anchor="middle" x="296" y="-164.8" font-family="Times,serif" font-size="14.00">LessonsModule</text>
</g>
<!-- AdminModule&#45;&gt;LessonsModule -->
<g id="edge1" class="edge">
<title>AdminModule&#45;&gt;LessonsModule</title>
<path fill="none" stroke="black" d="M467,-122.11C467,-141.34 467,-169 467,-169 467,-169 358.23,-169 358.23,-169"/>
<polygon fill="black" stroke="black" points="358.23,-165.5 348.23,-169 358.23,-172.5 358.23,-165.5"/>
</g>
<!-- ClientModule -->
<g id="node2" class="node">
<title>ClientModule</title>
<polygon fill="#8dd3c7" stroke="black" points="399.77,-122 396.77,-126 375.77,-126 372.77,-122 306.23,-122 306.23,-86 399.77,-86 399.77,-122"/>
<text text-anchor="middle" x="353" y="-99.8" font-family="Times,serif" font-size="14.00">ClientModule</text>
</g>
<!-- ClientModule&#45;&gt;LessonsModule -->
<g id="edge2" class="edge">
<title>ClientModule&#45;&gt;LessonsModule</title>
<path fill="none" stroke="black" d="M327.22,-122.11C327.22,-122.11 327.22,-140.99 327.22,-140.99"/>
<polygon fill="black" stroke="black" points="323.72,-140.99 327.22,-150.99 330.72,-140.99 323.72,-140.99"/>
</g>
<!-- SharedModule -->
<g id="node3" class="node">
<title>SharedModule</title>
<polygon fill="#8dd3c7" stroke="black" points="288.42,-122 285.42,-126 264.42,-126 261.42,-122 189.58,-122 189.58,-86 288.42,-86 288.42,-122"/>
<text text-anchor="middle" x="239" y="-99.8" font-family="Times,serif" font-size="14.00">SharedModule</text>
</g>
<!-- SharedModule&#45;&gt;LessonsModule -->
<g id="edge3" class="edge">
<title>SharedModule&#45;&gt;LessonsModule</title>
<path fill="none" stroke="black" d="M265.94,-122.11C265.94,-122.11 265.94,-140.99 265.94,-140.99"/>
<polygon fill="black" stroke="black" points="262.44,-140.99 265.94,-150.99 269.44,-140.99 262.44,-140.99"/>
</g>
<!-- LessonsService -->
<g id="node5" class="node">
<title>LessonsService</title>
<ellipse fill="#fdb462" stroke="black" cx="95" cy="-104" rx="71.2" ry="18"/>
<text text-anchor="middle" x="95" y="-99.8" font-family="Times,serif" font-size="14.00">LessonsService</text>
</g>
<!-- LessonsService&#45;&gt;LessonsModule -->
<g id="edge4" class="edge">
<title>LessonsService&#45;&gt;LessonsModule</title>
<path fill="none" stroke="black" d="M95,-122.11C95,-141.34 95,-169 95,-169 95,-169 233.71,-169 233.71,-169"/>
<polygon fill="black" stroke="black" points="233.71,-172.5 243.71,-169 233.71,-165.5 233.71,-172.5"/>
</g>
</g>
</svg>
