<?xml version="1.0" encoding="UTF-8" standalone="no"?>
<!DOCTYPE svg PUBLIC "-//W3C//DTD SVG 1.1//EN"
 "http://www.w3.org/Graphics/SVG/1.1/DTD/svg11.dtd">
<!-- Generated by graphviz version 2.47.0 (20210316.0004)
 -->
<!-- Title: dependencies Pages: 1 -->
<svg width="558pt" height="211pt"
 viewBox="0.00 0.00 558.00 211.00" xmlns="http://www.w3.org/2000/svg" xmlns:xlink="http://www.w3.org/1999/xlink">
<g id="graph0" class="graph" transform="scale(1 1) rotate(0) translate(4 207)">
<title>dependencies</title>
<polygon fill="white" stroke="transparent" points="-4,4 -4,-207 554,-207 554,4 -4,4"/>
<text text-anchor="start" x="254.01" y="-42.4" font-family="Times-12" font-weight="bold" font-size="14.00">Legend</text>
<polygon fill="#ffffb3" stroke="transparent" points="41,-10 41,-30 61,-30 61,-10 41,-10"/>
<text text-anchor="start" x="64.63" y="-15.4" font-family="Times-12" font-size="14.00"> &#160;Declarations</text>
<polygon fill="#8dd3c7" stroke="transparent" points="154,-10 154,-30 174,-30 174,-10 154,-10"/>
<text text-anchor="start" x="177.73" y="-15.4" font-family="Times-12" font-size="14.00"> &#160;Module</text>
<polygon fill="#80b1d3" stroke="transparent" points="240,-10 240,-30 260,-30 260,-10 240,-10"/>
<text text-anchor="start" x="263.78" y="-15.4" font-family="Times-12" font-size="14.00"> &#160;Bootstrap</text>
<polygon fill="#fdb462" stroke="transparent" points="337,-10 337,-30 357,-30 357,-10 337,-10"/>
<text text-anchor="start" x="360.67" y="-15.4" font-family="Times-12" font-size="14.00"> &#160;Providers</text>
<polygon fill="#fb8072" stroke="transparent" points="433,-10 433,-30 453,-30 453,-10 433,-10"/>
<text text-anchor="start" x="456.73" y="-15.4" font-family="Times-12" font-size="14.00"> &#160;Exports</text>
<g id="clust1" class="cluster">
<title>cluster_AdminModule</title>
<polygon fill="none" stroke="black" stroke-dasharray="1,5" points="8,-70 8,-195 542,-195 542,-70 8,-70"/>
</g>
<g id="clust3" class="cluster">
<title>cluster_AdminModule_imports</title>
<polygon fill="none" stroke="black" points="420,-78 420,-130 534,-130 534,-78 420,-78"/>
</g>
<g id="clust6" class="cluster">
<title>cluster_AdminModule_providers</title>
<polygon fill="none" stroke="black" points="16,-78 16,-130 412,-130 412,-78 16,-78"/>
</g>
<!-- PrismaModule -->
<g id="node1" class="node">
<title>PrismaModule</title>
<polygon fill="#8dd3c7" stroke="black" points="526.43,-122 523.43,-126 502.43,-126 499.43,-122 427.57,-122 427.57,-86 526.43,-86 526.43,-122"/>
<text text-anchor="middle" x="477" y="-99.8" font-family="Times,serif" font-size="14.00">PrismaModule</text>
</g>
<!-- AdminModule -->
<g id="node2" class="node">
<title>AdminModule</title>
<polygon fill="#8dd3c7" stroke="black" points="317.44,-187 314.44,-191 293.44,-191 290.44,-187 218.56,-187 218.56,-151 317.44,-151 317.44,-187"/>
<text text-anchor="middle" x="268" y="-164.8" font-family="Times,serif" font-size="14.00">AdminModule</text>
</g>
<!-- PrismaModule&#45;&gt;AdminModule -->
<g id="edge1" class="edge">
<title>PrismaModule&#45;&gt;AdminModule</title>
<path fill="none" stroke="black" d="M477,-122.11C477,-141.34 477,-169 477,-169 477,-169 327.27,-169 327.27,-169"/>
<polygon fill="black" stroke="black" points="327.27,-165.5 317.27,-169 327.27,-172.5 327.27,-165.5"/>
</g>
<!-- AdminService -->
<g id="node3" class="node">
<title>AdminService</title>
<ellipse fill="#fdb462" stroke="black" cx="337" cy="-104" rx="66.63" ry="18"/>
<text text-anchor="middle" x="337" y="-99.8" font-family="Times,serif" font-size="14.00">AdminService</text>
</g>
<!-- AdminService&#45;&gt;AdminModule -->
<g id="edge2" class="edge">
<title>AdminService&#45;&gt;AdminModule</title>
<path fill="none" stroke="black" d="M293.7,-117.78C293.7,-117.78 293.7,-140.55 293.7,-140.55"/>
<polygon fill="black" stroke="black" points="290.2,-140.55 293.7,-150.55 297.2,-140.55 290.2,-140.55"/>
</g>
<!-- AtStrategy -->
<g id="node4" class="node">
<title>AtStrategy</title>
<ellipse fill="#fdb462" stroke="black" cx="199" cy="-104" rx="52.74" ry="18"/>
<text text-anchor="middle" x="199" y="-99.8" font-family="Times,serif" font-size="14.00">AtStrategy</text>
</g>
<!-- AtStrategy&#45;&gt;AdminModule -->
<g id="edge3" class="edge">
<title>AtStrategy&#45;&gt;AdminModule</title>
<path fill="none" stroke="black" d="M235.33,-117.15C235.33,-117.15 235.33,-140.69 235.33,-140.69"/>
<polygon fill="black" stroke="black" points="231.83,-140.69 235.33,-150.69 238.83,-140.69 231.83,-140.69"/>
</g>
<!-- RtStrategy -->
<g id="node5" class="node">
<title>RtStrategy</title>
<ellipse fill="#fdb462" stroke="black" cx="76" cy="-104" rx="52.18" ry="18"/>
<text text-anchor="middle" x="76" y="-99.8" font-family="Times,serif" font-size="14.00">RtStrategy</text>
</g>
<!-- RtStrategy&#45;&gt;AdminModule -->
<g id="edge4" class="edge">
<title>RtStrategy&#45;&gt;AdminModule</title>
<path fill="none" stroke="black" d="M76,-122.11C76,-141.34 76,-169 76,-169 76,-169 208.56,-169 208.56,-169"/>
<polygon fill="black" stroke="black" points="208.56,-172.5 218.56,-169 208.56,-165.5 208.56,-172.5"/>
</g>
</g>
</svg>
