<?xml version="1.0" encoding="UTF-8" standalone="no"?>
<!DOCTYPE svg PUBLIC "-//W3C//DTD SVG 1.1//EN"
 "http://www.w3.org/Graphics/SVG/1.1/DTD/svg11.dtd">
<!-- Generated by graphviz version 2.47.0 (20210316.0004)
 -->
<!-- Title: dependencies Pages: 1 -->
<svg width="1186pt" height="211pt"
 viewBox="0.00 0.00 1186.00 211.00" xmlns="http://www.w3.org/2000/svg" xmlns:xlink="http://www.w3.org/1999/xlink">
<g id="graph0" class="graph" transform="scale(1 1) rotate(0) translate(4 207)">
<title>dependencies</title>
<polygon fill="white" stroke="transparent" points="-4,4 -4,-207 1182,-207 1182,4 -4,4"/>
<text text-anchor="start" x="568.01" y="-42.4" font-family="Times-12" font-weight="bold" font-size="14.00">Legend</text>
<polygon fill="#ffffb3" stroke="transparent" points="355,-10 355,-30 375,-30 375,-10 355,-10"/>
<text text-anchor="start" x="378.63" y="-15.4" font-family="Times-12" font-size="14.00"> &#160;Declarations</text>
<polygon fill="#8dd3c7" stroke="transparent" points="468,-10 468,-30 488,-30 488,-10 468,-10"/>
<text text-anchor="start" x="491.73" y="-15.4" font-family="Times-12" font-size="14.00"> &#160;Module</text>
<polygon fill="#80b1d3" stroke="transparent" points="554,-10 554,-30 574,-30 574,-10 554,-10"/>
<text text-anchor="start" x="577.78" y="-15.4" font-family="Times-12" font-size="14.00"> &#160;Bootstrap</text>
<polygon fill="#fdb462" stroke="transparent" points="651,-10 651,-30 671,-30 671,-10 651,-10"/>
<text text-anchor="start" x="674.67" y="-15.4" font-family="Times-12" font-size="14.00"> &#160;Providers</text>
<polygon fill="#fb8072" stroke="transparent" points="747,-10 747,-30 767,-30 767,-10 747,-10"/>
<text text-anchor="start" x="770.73" y="-15.4" font-family="Times-12" font-size="14.00"> &#160;Exports</text>
<g id="clust1" class="cluster">
<title>cluster_AppModule</title>
<polygon fill="none" stroke="black" stroke-dasharray="1,5" points="8,-70 8,-195 1170,-195 1170,-70 8,-70"/>
</g>
<g id="clust3" class="cluster">
<title>cluster_AppModule_imports</title>
<polygon fill="none" stroke="black" points="16,-78 16,-130 1162,-130 1162,-78 16,-78"/>
</g>
<!-- AuthModule -->
<g id="node1" class="node">
<title>AuthModule</title>
<polygon fill="#8dd3c7" stroke="black" points="1153.55,-122 1150.55,-126 1129.55,-126 1126.55,-122 1066.45,-122 1066.45,-86 1153.55,-86 1153.55,-122"/>
<text text-anchor="middle" x="1110" y="-99.8" font-family="Times,serif" font-size="14.00">AuthModule</text>
</g>
<!-- AppModule -->
<g id="node11" class="node">
<title>AppModule</title>
<polygon fill="#8dd3c7" stroke="black" points="606.66,-187 603.66,-191 582.66,-191 579.66,-187 523.34,-187 523.34,-151 606.66,-151 606.66,-187"/>
<text text-anchor="middle" x="565" y="-164.8" font-family="Times,serif" font-size="14.00">AppModule</text>
</g>
<!-- AuthModule&#45;&gt;AppModule -->
<g id="edge1" class="edge">
<title>AuthModule&#45;&gt;AppModule</title>
<path fill="none" stroke="black" d="M1110,-122.01C1110,-144.49 1110,-180 1110,-180 1110,-180 616.86,-180 616.86,-180"/>
<polygon fill="black" stroke="black" points="616.86,-176.5 606.86,-180 616.86,-183.5 616.86,-176.5"/>
</g>
<!-- BillingModule -->
<g id="node2" class="node">
<title>BillingModule</title>
<polygon fill="#8dd3c7" stroke="black" points="1048.45,-122 1045.45,-126 1024.45,-126 1021.45,-122 949.55,-122 949.55,-86 1048.45,-86 1048.45,-122"/>
<text text-anchor="middle" x="999" y="-99.8" font-family="Times,serif" font-size="14.00">BillingModule</text>
</g>
<!-- BillingModule&#45;&gt;AppModule -->
<g id="edge2" class="edge">
<title>BillingModule&#45;&gt;AppModule</title>
<path fill="none" stroke="black" d="M999,-122.13C999,-142.57 999,-173 999,-173 999,-173 617.01,-173 617.01,-173"/>
<polygon fill="black" stroke="black" points="617.01,-169.5 607.01,-173 617.01,-176.5 617.01,-169.5"/>
</g>
<!-- CategoriesModule -->
<g id="node3" class="node">
<title>CategoriesModule</title>
<polygon fill="#8dd3c7" stroke="black" points="931.92,-122 928.92,-126 907.92,-126 904.92,-122 812.08,-122 812.08,-86 931.92,-86 931.92,-122"/>
<text text-anchor="middle" x="872" y="-99.8" font-family="Times,serif" font-size="14.00">CategoriesModule</text>
</g>
<!-- CategoriesModule&#45;&gt;AppModule -->
<g id="edge3" class="edge">
<title>CategoriesModule&#45;&gt;AppModule</title>
<path fill="none" stroke="black" d="M872,-122.27C872,-140.56 872,-166 872,-166 872,-166 616.72,-166 616.72,-166"/>
<polygon fill="black" stroke="black" points="616.72,-162.5 606.72,-166 616.72,-169.5 616.72,-162.5"/>
</g>
<!-- CoursesModule -->
<g id="node4" class="node">
<title>CoursesModule</title>
<polygon fill="#8dd3c7" stroke="black" points="794.15,-122 791.15,-126 770.15,-126 767.15,-122 689.85,-122 689.85,-86 794.15,-86 794.15,-122"/>
<text text-anchor="middle" x="742" y="-99.8" font-family="Times,serif" font-size="14.00">CoursesModule</text>
</g>
<!-- CoursesModule&#45;&gt;AppModule -->
<g id="edge4" class="edge">
<title>CoursesModule&#45;&gt;AppModule</title>
<path fill="none" stroke="black" d="M742,-122.01C742,-138.05 742,-159 742,-159 742,-159 616.95,-159 616.95,-159"/>
<polygon fill="black" stroke="black" points="616.95,-155.5 606.95,-159 616.95,-162.5 616.95,-155.5"/>
</g>
<!-- ImageModule -->
<g id="node5" class="node">
<title>ImageModule</title>
<polygon fill="#8dd3c7" stroke="black" points="671.03,-122 668.03,-126 647.03,-126 644.03,-122 576.97,-122 576.97,-86 671.03,-86 671.03,-122"/>
<text text-anchor="middle" x="624" y="-99.8" font-family="Times,serif" font-size="14.00">ImageModule</text>
</g>
<!-- ImageModule&#45;&gt;AppModule -->
<g id="edge5" class="edge">
<title>ImageModule&#45;&gt;AppModule</title>
<path fill="none" stroke="black" d="M591.78,-122.11C591.78,-122.11 591.78,-140.99 591.78,-140.99"/>
<polygon fill="black" stroke="black" points="588.28,-140.99 591.78,-150.99 595.28,-140.99 588.28,-140.99"/>
</g>
<!-- LessonsModule -->
<g id="node6" class="node">
<title>LessonsModule</title>
<polygon fill="#8dd3c7" stroke="black" points="558.15,-122 555.15,-126 534.15,-126 531.15,-122 453.85,-122 453.85,-86 558.15,-86 558.15,-122"/>
<text text-anchor="middle" x="506" y="-99.8" font-family="Times,serif" font-size="14.00">LessonsModule</text>
</g>
<!-- LessonsModule&#45;&gt;AppModule -->
<g id="edge6" class="edge">
<title>LessonsModule&#45;&gt;AppModule</title>
<path fill="none" stroke="black" d="M540.75,-122.11C540.75,-122.11 540.75,-140.99 540.75,-140.99"/>
<polygon fill="black" stroke="black" points="537.25,-140.99 540.75,-150.99 544.25,-140.99 537.25,-140.99"/>
</g>
<!-- PartsModule -->
<g id="node7" class="node">
<title>PartsModule</title>
<polygon fill="#8dd3c7" stroke="black" points="435.54,-122 432.54,-126 411.54,-126 408.54,-122 348.46,-122 348.46,-86 435.54,-86 435.54,-122"/>
<text text-anchor="middle" x="392" y="-99.8" font-family="Times,serif" font-size="14.00">PartsModule</text>
</g>
<!-- PartsModule&#45;&gt;AppModule -->
<g id="edge7" class="edge">
<title>PartsModule&#45;&gt;AppModule</title>
<path fill="none" stroke="black" d="M392,-122.01C392,-138.05 392,-159 392,-159 392,-159 513.12,-159 513.12,-159"/>
<polygon fill="black" stroke="black" points="513.12,-162.5 523.12,-159 513.12,-155.5 513.12,-162.5"/>
</g>
<!-- PrismaModule -->
<g id="node8" class="node">
<title>PrismaModule</title>
<polygon fill="#8dd3c7" stroke="black" points="330.43,-122 327.43,-126 306.43,-126 303.43,-122 231.57,-122 231.57,-86 330.43,-86 330.43,-122"/>
<text text-anchor="middle" x="281" y="-99.8" font-family="Times,serif" font-size="14.00">PrismaModule</text>
</g>
<!-- PrismaModule&#45;&gt;AppModule -->
<g id="edge8" class="edge">
<title>PrismaModule&#45;&gt;AppModule</title>
<path fill="none" stroke="black" d="M281,-122.27C281,-140.56 281,-166 281,-166 281,-166 513.09,-166 513.09,-166"/>
<polygon fill="black" stroke="black" points="513.09,-169.5 523.09,-166 513.09,-162.5 513.09,-169.5"/>
</g>
<!-- RoleModule -->
<g id="node9" class="node">
<title>RoleModule</title>
<polygon fill="#8dd3c7" stroke="black" points="213.99,-122 210.99,-126 189.99,-126 186.99,-122 128.01,-122 128.01,-86 213.99,-86 213.99,-122"/>
<text text-anchor="middle" x="171" y="-99.8" font-family="Times,serif" font-size="14.00">RoleModule</text>
</g>
<!-- RoleModule&#45;&gt;AppModule -->
<g id="edge9" class="edge">
<title>RoleModule&#45;&gt;AppModule</title>
<path fill="none" stroke="black" d="M171,-122.13C171,-142.57 171,-173 171,-173 171,-173 513.21,-173 513.21,-173"/>
<polygon fill="black" stroke="black" points="513.21,-176.5 523.21,-173 513.21,-169.5 513.21,-176.5"/>
</g>
<!-- UserModule -->
<g id="node10" class="node">
<title>UserModule</title>
<polygon fill="#8dd3c7" stroke="black" points="109.98,-122 106.98,-126 85.98,-126 82.98,-122 24.02,-122 24.02,-86 109.98,-86 109.98,-122"/>
<text text-anchor="middle" x="67" y="-99.8" font-family="Times,serif" font-size="14.00">UserModule</text>
</g>
<!-- UserModule&#45;&gt;AppModule -->
<g id="edge10" class="edge">
<title>UserModule&#45;&gt;AppModule</title>
<path fill="none" stroke="black" d="M67,-122.01C67,-144.49 67,-180 67,-180 67,-180 512.97,-180 512.97,-180"/>
<polygon fill="black" stroke="black" points="512.97,-183.5 522.97,-180 512.97,-176.5 512.97,-183.5"/>
</g>
</g>
</svg>
