<?xml version="1.0" encoding="UTF-8" standalone="no"?>
<!DOCTYPE svg PUBLIC "-//W3C//DTD SVG 1.1//EN"
 "http://www.w3.org/Graphics/SVG/1.1/DTD/svg11.dtd">
<!-- Generated by graphviz version 2.47.0 (20210316.0004)
 -->
<!-- Title: dependencies Pages: 1 -->
<svg width="540pt" height="211pt"
 viewBox="0.00 0.00 540.00 211.00" xmlns="http://www.w3.org/2000/svg" xmlns:xlink="http://www.w3.org/1999/xlink">
<g id="graph0" class="graph" transform="scale(1 1) rotate(0) translate(4 207)">
<title>dependencies</title>
<polygon fill="white" stroke="transparent" points="-4,4 -4,-207 536,-207 536,4 -4,4"/>
<text text-anchor="start" x="245.01" y="-42.4" font-family="Times-12" font-weight="bold" font-size="14.00">Legend</text>
<polygon fill="#ffffb3" stroke="transparent" points="32,-10 32,-30 52,-30 52,-10 32,-10"/>
<text text-anchor="start" x="55.63" y="-15.4" font-family="Times-12" font-size="14.00"> &#160;Declarations</text>
<polygon fill="#8dd3c7" stroke="transparent" points="145,-10 145,-30 165,-30 165,-10 145,-10"/>
<text text-anchor="start" x="168.73" y="-15.4" font-family="Times-12" font-size="14.00"> &#160;Module</text>
<polygon fill="#80b1d3" stroke="transparent" points="231,-10 231,-30 251,-30 251,-10 231,-10"/>
<text text-anchor="start" x="254.78" y="-15.4" font-family="Times-12" font-size="14.00"> &#160;Bootstrap</text>
<polygon fill="#fdb462" stroke="transparent" points="328,-10 328,-30 348,-30 348,-10 328,-10"/>
<text text-anchor="start" x="351.67" y="-15.4" font-family="Times-12" font-size="14.00"> &#160;Providers</text>
<polygon fill="#fb8072" stroke="transparent" points="424,-10 424,-30 444,-30 444,-10 424,-10"/>
<text text-anchor="start" x="447.73" y="-15.4" font-family="Times-12" font-size="14.00"> &#160;Exports</text>
<g id="clust1" class="cluster">
<title>cluster_BillingModule</title>
<polygon fill="none" stroke="black" stroke-dasharray="1,5" points="8,-70 8,-195 524,-195 524,-70 8,-70"/>
</g>
<g id="clust6" class="cluster">
<title>cluster_BillingModule_providers</title>
<polygon fill="none" stroke="black" points="366,-78 366,-130 516,-130 516,-78 366,-78"/>
</g>
<g id="clust3" class="cluster">
<title>cluster_BillingModule_imports</title>
<polygon fill="none" stroke="black" points="16,-78 16,-130 358,-130 358,-78 16,-78"/>
</g>
<!-- AdminModule -->
<g id="node1" class="node">
<title>AdminModule</title>
<polygon fill="#8dd3c7" stroke="black" points="350.44,-122 347.44,-126 326.44,-126 323.44,-122 251.56,-122 251.56,-86 350.44,-86 350.44,-122"/>
<text text-anchor="middle" x="301" y="-99.8" font-family="Times,serif" font-size="14.00">AdminModule</text>
</g>
<!-- BillingModule -->
<g id="node4" class="node">
<title>BillingModule</title>
<polygon fill="#8dd3c7" stroke="black" points="293.45,-187 290.45,-191 269.45,-191 266.45,-187 194.55,-187 194.55,-151 293.45,-151 293.45,-187"/>
<text text-anchor="middle" x="244" y="-164.8" font-family="Times,serif" font-size="14.00">BillingModule</text>
</g>
<!-- AdminModule&#45;&gt;BillingModule -->
<g id="edge1" class="edge">
<title>AdminModule&#45;&gt;BillingModule</title>
<path fill="none" stroke="black" d="M272.5,-122.11C272.5,-122.11 272.5,-140.99 272.5,-140.99"/>
<polygon fill="black" stroke="black" points="269,-140.99 272.5,-150.99 276,-140.99 269,-140.99"/>
</g>
<!-- ClientModule -->
<g id="node2" class="node">
<title>ClientModule</title>
<polygon fill="#8dd3c7" stroke="black" points="233.77,-122 230.77,-126 209.77,-126 206.77,-122 140.23,-122 140.23,-86 233.77,-86 233.77,-122"/>
<text text-anchor="middle" x="187" y="-99.8" font-family="Times,serif" font-size="14.00">ClientModule</text>
</g>
<!-- ClientModule&#45;&gt;BillingModule -->
<g id="edge2" class="edge">
<title>ClientModule&#45;&gt;BillingModule</title>
<path fill="none" stroke="black" d="M214.33,-122.11C214.33,-122.11 214.33,-140.99 214.33,-140.99"/>
<polygon fill="black" stroke="black" points="210.83,-140.99 214.33,-150.99 217.83,-140.99 210.83,-140.99"/>
</g>
<!-- SharedModule -->
<g id="node3" class="node">
<title>SharedModule</title>
<polygon fill="#8dd3c7" stroke="black" points="122.42,-122 119.42,-126 98.42,-126 95.42,-122 23.58,-122 23.58,-86 122.42,-86 122.42,-122"/>
<text text-anchor="middle" x="73" y="-99.8" font-family="Times,serif" font-size="14.00">SharedModule</text>
</g>
<!-- SharedModule&#45;&gt;BillingModule -->
<g id="edge3" class="edge">
<title>SharedModule&#45;&gt;BillingModule</title>
<path fill="none" stroke="black" d="M73,-122.11C73,-141.34 73,-169 73,-169 73,-169 184.54,-169 184.54,-169"/>
<polygon fill="black" stroke="black" points="184.54,-172.5 194.54,-169 184.54,-165.5 184.54,-172.5"/>
</g>
<!-- BillingService -->
<g id="node5" class="node">
<title>BillingService</title>
<ellipse fill="#fdb462" stroke="black" cx="441" cy="-104" rx="66.65" ry="18"/>
<text text-anchor="middle" x="441" y="-99.8" font-family="Times,serif" font-size="14.00">BillingService</text>
</g>
<!-- BillingService&#45;&gt;BillingModule -->
<g id="edge4" class="edge">
<title>BillingService&#45;&gt;BillingModule</title>
<path fill="none" stroke="black" d="M441,-122.11C441,-141.34 441,-169 441,-169 441,-169 303.46,-169 303.46,-169"/>
<polygon fill="black" stroke="black" points="303.46,-165.5 293.46,-169 303.46,-172.5 303.46,-165.5"/>
</g>
</g>
</svg>
