<?xml version="1.0" encoding="UTF-8" standalone="no"?>
<!DOCTYPE svg PUBLIC "-//W3C//DTD SVG 1.1//EN"
 "http://www.w3.org/Graphics/SVG/1.1/DTD/svg11.dtd">
<!-- Generated by graphviz version 2.47.0 (20210316.0004)
 -->
<!-- Title: dependencies Pages: 1 -->
<svg width="638pt" height="211pt"
 viewBox="0.00 0.00 638.00 211.00" xmlns="http://www.w3.org/2000/svg" xmlns:xlink="http://www.w3.org/1999/xlink">
<g id="graph0" class="graph" transform="scale(1 1) rotate(0) translate(4 207)">
<title>dependencies</title>
<polygon fill="white" stroke="transparent" points="-4,4 -4,-207 634,-207 634,4 -4,4"/>
<text text-anchor="start" x="294.01" y="-42.4" font-family="Times-12" font-weight="bold" font-size="14.00">Legend</text>
<polygon fill="#ffffb3" stroke="transparent" points="81,-10 81,-30 101,-30 101,-10 81,-10"/>
<text text-anchor="start" x="104.63" y="-15.4" font-family="Times-12" font-size="14.00"> &#160;Declarations</text>
<polygon fill="#8dd3c7" stroke="transparent" points="194,-10 194,-30 214,-30 214,-10 194,-10"/>
<text text-anchor="start" x="217.73" y="-15.4" font-family="Times-12" font-size="14.00"> &#160;Module</text>
<polygon fill="#80b1d3" stroke="transparent" points="280,-10 280,-30 300,-30 300,-10 280,-10"/>
<text text-anchor="start" x="303.78" y="-15.4" font-family="Times-12" font-size="14.00"> &#160;Bootstrap</text>
<polygon fill="#fdb462" stroke="transparent" points="377,-10 377,-30 397,-30 397,-10 377,-10"/>
<text text-anchor="start" x="400.67" y="-15.4" font-family="Times-12" font-size="14.00"> &#160;Providers</text>
<polygon fill="#fb8072" stroke="transparent" points="473,-10 473,-30 493,-30 493,-10 473,-10"/>
<text text-anchor="start" x="496.73" y="-15.4" font-family="Times-12" font-size="14.00"> &#160;Exports</text>
<g id="clust1" class="cluster">
<title>cluster_RoleModule</title>
<polygon fill="none" stroke="black" stroke-dasharray="1,5" points="8,-70 8,-195 622,-195 622,-70 8,-70"/>
</g>
<g id="clust3" class="cluster">
<title>cluster_RoleModule_imports</title>
<polygon fill="none" stroke="black" points="156,-78 156,-130 614,-130 614,-78 156,-78"/>
</g>
<g id="clust6" class="cluster">
<title>cluster_RoleModule_providers</title>
<polygon fill="none" stroke="black" points="16,-78 16,-130 148,-130 148,-78 16,-78"/>
</g>
<!-- AdminModule -->
<g id="node1" class="node">
<title>AdminModule</title>
<polygon fill="#8dd3c7" stroke="black" points="606.44,-122 603.44,-126 582.44,-126 579.44,-122 507.56,-122 507.56,-86 606.44,-86 606.44,-122"/>
<text text-anchor="middle" x="557" y="-99.8" font-family="Times,serif" font-size="14.00">AdminModule</text>
</g>
<!-- RoleModule -->
<g id="node5" class="node">
<title>RoleModule</title>
<polygon fill="#8dd3c7" stroke="black" points="371.99,-187 368.99,-191 347.99,-191 344.99,-187 286.01,-187 286.01,-151 371.99,-151 371.99,-187"/>
<text text-anchor="middle" x="329" y="-164.8" font-family="Times,serif" font-size="14.00">RoleModule</text>
</g>
<!-- AdminModule&#45;&gt;RoleModule -->
<g id="edge1" class="edge">
<title>AdminModule&#45;&gt;RoleModule</title>
<path fill="none" stroke="black" d="M557,-122.28C557,-143.32 557,-175 557,-175 557,-175 382.15,-175 382.15,-175"/>
<polygon fill="black" stroke="black" points="382.15,-171.5 372.15,-175 382.15,-178.5 382.15,-171.5"/>
</g>
<!-- ClientModule -->
<g id="node2" class="node">
<title>ClientModule</title>
<polygon fill="#8dd3c7" stroke="black" points="489.77,-122 486.77,-126 465.77,-126 462.77,-122 396.23,-122 396.23,-86 489.77,-86 489.77,-122"/>
<text text-anchor="middle" x="443" y="-99.8" font-family="Times,serif" font-size="14.00">ClientModule</text>
</g>
<!-- ClientModule&#45;&gt;RoleModule -->
<g id="edge2" class="edge">
<title>ClientModule&#45;&gt;RoleModule</title>
<path fill="none" stroke="black" d="M443,-122.02C443,-139.37 443,-163 443,-163 443,-163 382.1,-163 382.1,-163"/>
<polygon fill="black" stroke="black" points="382.1,-159.5 372.1,-163 382.1,-166.5 382.1,-159.5"/>
</g>
<!-- PrismaModule -->
<g id="node3" class="node">
<title>PrismaModule</title>
<polygon fill="#8dd3c7" stroke="black" points="378.43,-122 375.43,-126 354.43,-126 351.43,-122 279.57,-122 279.57,-86 378.43,-86 378.43,-122"/>
<text text-anchor="middle" x="329" y="-99.8" font-family="Times,serif" font-size="14.00">PrismaModule</text>
</g>
<!-- PrismaModule&#45;&gt;RoleModule -->
<g id="edge3" class="edge">
<title>PrismaModule&#45;&gt;RoleModule</title>
<path fill="none" stroke="black" d="M329,-122.11C329,-122.11 329,-140.99 329,-140.99"/>
<polygon fill="black" stroke="black" points="325.5,-140.99 329,-150.99 332.5,-140.99 325.5,-140.99"/>
</g>
<!-- SharedModule -->
<g id="node4" class="node">
<title>SharedModule</title>
<polygon fill="#8dd3c7" stroke="black" points="262.42,-122 259.42,-126 238.42,-126 235.42,-122 163.58,-122 163.58,-86 262.42,-86 262.42,-122"/>
<text text-anchor="middle" x="213" y="-99.8" font-family="Times,serif" font-size="14.00">SharedModule</text>
</g>
<!-- SharedModule&#45;&gt;RoleModule -->
<g id="edge4" class="edge">
<title>SharedModule&#45;&gt;RoleModule</title>
<path fill="none" stroke="black" d="M213,-122.02C213,-139.37 213,-163 213,-163 213,-163 275.81,-163 275.81,-163"/>
<polygon fill="black" stroke="black" points="275.81,-166.5 285.81,-163 275.81,-159.5 275.81,-166.5"/>
</g>
<!-- RoleService -->
<g id="node6" class="node">
<title>RoleService</title>
<ellipse fill="#fdb462" stroke="black" cx="82" cy="-104" rx="58.46" ry="18"/>
<text text-anchor="middle" x="82" y="-99.8" font-family="Times,serif" font-size="14.00">RoleService</text>
</g>
<!-- RoleService&#45;&gt;RoleModule -->
<g id="edge5" class="edge">
<title>RoleService&#45;&gt;RoleModule</title>
<path fill="none" stroke="black" d="M82,-122.28C82,-143.32 82,-175 82,-175 82,-175 275.98,-175 275.98,-175"/>
<polygon fill="black" stroke="black" points="275.98,-178.5 285.98,-175 275.98,-171.5 275.98,-178.5"/>
</g>
</g>
</svg>
